<svg width="172" height="36" viewBox="0 0 172 36" fill="none" xmlns="http://www.w3.org/2000/svg">
<path d="M158.337 5.05908C158.11 6.7801 158.466 8.74562 159.717 10.4073C161.165 12.3296 163.823 13.894 168.301 14.1847C167.664 11.0613 166.429 9.24016 164.734 7.89086C163.382 6.81467 161.7 6.03145 159.811 5.19789C161.559 7.35326 163.364 9.4982 165.986 10.6292L165.568 11.5976C162.304 10.1896 160.278 7.4551 158.337 5.05908H158.337ZM157.188 5.74187C154.691 10.9445 151.977 16.0374 148.517 20.8052C148.402 20.7108 148.296 20.6162 148.198 20.5283C147.906 20.2684 147.664 20.0601 147.294 19.9185C147.157 19.866 147.02 19.8406 146.883 19.8408C146.47 19.8414 146.054 20.0721 145.614 20.4918C145.028 21.0515 144.504 21.9222 144.214 22.6961C143.375 24.936 144.504 27.4172 146.745 28.2561C148.985 29.0951 151.466 27.9659 152.305 25.7261C152.595 24.9534 152.775 23.9437 152.704 23.1337C152.668 22.7288 152.57 22.378 152.423 22.1255C152.276 21.8729 152.099 21.7134 151.825 21.62C151.563 21.5309 151.209 21.5199 150.784 21.5116C150.384 21.5038 149.92 21.4942 149.438 21.332C152.564 17.0097 155.077 12.4437 157.362 7.79746C156.943 11.1135 156.531 14.509 155.609 17.7754C155.197 17.7268 154.856 17.5882 154.561 17.474C154.197 17.3329 153.897 17.2229 153.501 17.2199C152.914 17.2154 152.481 17.6164 152.129 18.3459C151.832 18.9599 151.655 19.7644 151.606 20.4967C151.788 20.5195 151.975 20.5569 152.165 20.6216C152.685 20.7988 153.084 21.1627 153.335 21.5959C153.587 22.0291 153.709 22.5263 153.754 23.0409C153.8 23.5536 153.77 24.0875 153.686 24.607C154.336 24.9964 155.096 25.2204 155.911 25.2204C158.303 25.2204 160.231 23.2928 160.231 20.901C160.231 20.076 160.046 19.067 159.695 18.3336C159.519 17.967 159.304 17.6729 159.078 17.4878C158.852 17.3027 158.63 17.2155 158.341 17.2241C158.064 17.2325 157.729 17.3466 157.328 17.4877C157.144 17.5526 156.945 17.6216 156.731 17.6781C157.425 15.1135 157.821 12.5074 158.153 9.95529C157.428 8.59264 157.141 7.12527 157.188 5.74187ZM159.926 12.2226C160.02 12.5421 160.117 12.8648 160.215 13.1926C161.413 17.1679 162.871 21.6484 164.212 24.6333C163.946 24.6439 163.701 24.6214 163.482 24.6029C163.092 24.5698 162.774 24.5484 162.393 24.6566C161.829 24.817 161.526 25.3234 161.393 26.1224C161.259 26.9215 161.362 27.9326 161.594 28.7257C162.266 31.0213 164.657 32.3301 166.953 31.6585C169.249 30.9868 170.558 28.5954 169.886 26.2998C169.654 25.508 169.194 24.5915 168.651 23.9863C168.379 23.6837 168.09 23.4617 167.821 23.3475C167.687 23.2904 167.56 23.2565 167.433 23.248C167.305 23.2397 167.177 23.2568 167.039 23.3017C166.776 23.3871 166.486 23.5909 166.141 23.8388C165.887 24.0215 165.601 24.2262 165.258 24.3832C163.998 21.6157 162.542 17.2275 161.346 13.287C160.818 12.9614 160.346 12.6046 159.926 12.2225L159.926 12.2226Z" fill="#E3B814"/>
<path d="M21.375 19.26C21.375 20.87 21.12 22.335 20.61 23.655C20.1 24.975 19.38 26.105 18.45 27.045C17.52 27.985 16.4 28.715 15.09 29.235C13.79 29.745 12.35 30 10.77 30H2.745V8.505H10.77C12.35 8.505 13.79 8.765 15.09 9.285C16.4 9.795 17.52 10.525 18.45 11.475C19.38 12.415 20.1 13.545 20.61 14.865C21.12 16.185 21.375 17.65 21.375 19.26ZM18.39 19.26C18.39 17.94 18.21 16.76 17.85 15.72C17.49 14.68 16.98 13.8 16.32 13.08C15.66 12.36 14.86 11.81 13.92 11.43C12.98 11.05 11.93 10.86 10.77 10.86H5.655V27.645H10.77C11.93 27.645 12.98 27.455 13.92 27.075C14.86 26.695 15.66 26.15 16.32 25.44C16.98 24.72 17.49 23.84 17.85 22.8C18.21 21.76 18.39 20.58 18.39 19.26ZM27.15 17.85C27.63 16.81 28.22 16 28.92 15.42C29.62 14.83 30.475 14.535 31.485 14.535C31.805 14.535 32.11 14.57 32.4 14.64C32.7 14.71 32.965 14.82 33.195 14.97L33 16.965C32.94 17.215 32.79 17.34 32.55 17.34C32.41 17.34 32.205 17.31 31.935 17.25C31.665 17.19 31.36 17.16 31.02 17.16C30.54 17.16 30.11 17.23 29.73 17.37C29.36 17.51 29.025 17.72 28.725 18C28.435 18.27 28.17 18.61 27.93 19.02C27.7 19.42 27.49 19.88 27.3 20.4V30H24.615V14.805H26.145C26.435 14.805 26.635 14.86 26.745 14.97C26.855 15.08 26.93 15.27 26.97 15.54L27.15 17.85ZM38.3627 14.805V30H35.6927V14.805H38.3627ZM38.9327 10.035C38.9327 10.295 38.8777 10.54 38.7677 10.77C38.6677 10.99 38.5277 11.19 38.3477 11.37C38.1777 11.54 37.9727 11.675 37.7327 11.775C37.5027 11.875 37.2577 11.925 36.9977 11.925C36.7377 11.925 36.4927 11.875 36.2627 11.775C36.0427 11.675 35.8477 11.54 35.6777 11.37C35.5077 11.19 35.3727 10.99 35.2727 10.77C35.1727 10.54 35.1227 10.295 35.1227 10.035C35.1227 9.775 35.1727 9.53 35.2727 9.3C35.3727 9.06 35.5077 8.855 35.6777 8.685C35.8477 8.505 36.0427 8.365 36.2627 8.265C36.4927 8.165 36.7377 8.115 36.9977 8.115C37.2577 8.115 37.5027 8.165 37.7327 8.265C37.9727 8.365 38.1777 8.505 38.3477 8.685C38.5277 8.855 38.6677 9.06 38.7677 9.3C38.8777 9.53 38.9327 9.775 38.9327 10.035ZM45.2698 17.01C45.5998 16.64 45.9498 16.305 46.3198 16.005C46.6898 15.705 47.0798 15.45 47.4898 15.24C47.9098 15.02 48.3498 14.855 48.8098 14.745C49.2798 14.625 49.7848 14.565 50.3248 14.565C51.1548 14.565 51.8848 14.705 52.5148 14.985C53.1548 15.255 53.6848 15.645 54.1048 16.155C54.5348 16.655 54.8598 17.26 55.0798 17.97C55.2998 18.68 55.4098 19.465 55.4098 20.325V30H52.7248V20.325C52.7248 19.175 52.4598 18.285 51.9298 17.655C51.4098 17.015 50.6148 16.695 49.5448 16.695C48.7548 16.695 48.0148 16.885 47.3248 17.265C46.6448 17.645 46.0148 18.16 45.4348 18.81V30H42.7498V14.805H44.3548C44.7348 14.805 44.9698 14.99 45.0598 15.36L45.2698 17.01ZM62.1633 7.905V20.91H62.8533C63.0533 20.91 63.2183 20.885 63.3483 20.835C63.4883 20.775 63.6333 20.66 63.7833 20.49L68.5833 15.345C68.7233 15.175 68.8683 15.045 69.0183 14.955C69.1783 14.855 69.3883 14.805 69.6483 14.805H72.0633L66.4683 20.76C66.1983 21.1 65.9083 21.365 65.5983 21.555C65.7783 21.675 65.9383 21.815 66.0783 21.975C66.2283 22.125 66.3683 22.3 66.4983 22.5L72.4383 30H70.0533C69.8233 30 69.6233 29.965 69.4533 29.895C69.2933 29.815 69.1533 29.675 69.0333 29.475L64.0383 23.25C63.8883 23.04 63.7383 22.905 63.5883 22.845C63.4483 22.775 63.2283 22.74 62.9283 22.74H62.1633V30H59.4783V7.905H62.1633ZM82.9477 23.16C81.7177 23.2 80.6677 23.3 79.7977 23.46C78.9377 23.61 78.2327 23.81 77.6827 24.06C77.1427 24.31 76.7477 24.605 76.4977 24.945C76.2577 25.285 76.1377 25.665 76.1377 26.085C76.1377 26.485 76.2027 26.83 76.3327 27.12C76.4627 27.41 76.6377 27.65 76.8577 27.84C77.0877 28.02 77.3527 28.155 77.6527 28.245C77.9627 28.325 78.2927 28.365 78.6427 28.365C79.1127 28.365 79.5427 28.32 79.9327 28.23C80.3227 28.13 80.6877 27.99 81.0277 27.81C81.3777 27.63 81.7077 27.415 82.0177 27.165C82.3377 26.915 82.6477 26.63 82.9477 26.31V23.16ZM74.3227 16.95C75.1627 16.14 76.0677 15.535 77.0377 15.135C78.0077 14.735 79.0827 14.535 80.2627 14.535C81.1127 14.535 81.8677 14.675 82.5277 14.955C83.1877 15.235 83.7427 15.625 84.1927 16.125C84.6427 16.625 84.9827 17.23 85.2127 17.94C85.4427 18.65 85.5577 19.43 85.5577 20.28V30H84.3727C84.1127 30 83.9127 29.96 83.7727 29.88C83.6327 29.79 83.5227 29.62 83.4427 29.37L83.1427 27.93C82.7427 28.3 82.3527 28.63 81.9727 28.92C81.5927 29.2 81.1927 29.44 80.7727 29.64C80.3527 29.83 79.9027 29.975 79.4227 30.075C78.9527 30.185 78.4277 30.24 77.8477 30.24C77.2577 30.24 76.7027 30.16 76.1827 30C75.6627 29.83 75.2077 29.58 74.8177 29.25C74.4377 28.92 74.1327 28.505 73.9027 28.005C73.6827 27.495 73.5727 26.895 73.5727 26.205C73.5727 25.605 73.7377 25.03 74.0677 24.48C74.3977 23.92 74.9327 23.425 75.6727 22.995C76.4127 22.565 77.3777 22.215 78.5677 21.945C79.7577 21.665 81.2177 21.505 82.9477 21.465V20.28C82.9477 19.1 82.6927 18.21 82.1827 17.61C81.6727 17 80.9277 16.695 79.9477 16.695C79.2877 16.695 78.7327 16.78 78.2827 16.95C77.8427 17.11 77.4577 17.295 77.1277 17.505C76.8077 17.705 76.5277 17.89 76.2877 18.06C76.0577 18.22 75.8277 18.3 75.5977 18.3C75.4177 18.3 75.2627 18.255 75.1327 18.165C75.0027 18.065 74.8927 17.945 74.8027 17.805L74.3227 16.95ZM92.3098 26.34C92.7998 27 93.3348 27.465 93.9148 27.735C94.5048 28.005 95.1498 28.14 95.8498 28.14C97.2798 28.14 98.3748 27.635 99.1348 26.625C99.8948 25.615 100.275 24.11 100.275 22.11C100.275 20.25 99.9348 18.885 99.2548 18.015C98.5848 17.135 97.6248 16.695 96.3748 16.695C95.5048 16.695 94.7448 16.895 94.0948 17.295C93.4548 17.695 92.8598 18.26 92.3098 18.99V26.34ZM92.3098 16.995C92.9498 16.255 93.6698 15.665 94.4698 15.225C95.2798 14.785 96.2098 14.565 97.2598 14.565C98.1498 14.565 98.9498 14.735 99.6598 15.075C100.38 15.415 100.99 15.91 101.49 16.56C101.99 17.2 102.37 17.98 102.63 18.9C102.9 19.82 103.035 20.855 103.035 22.005C103.035 23.235 102.885 24.355 102.585 25.365C102.285 26.375 101.85 27.24 101.28 27.96C100.72 28.67 100.035 29.225 99.2248 29.625C98.4148 30.015 97.5048 30.21 96.4948 30.21C95.4948 30.21 94.6498 30.025 93.9598 29.655C93.2798 29.275 92.6848 28.74 92.1748 28.05L92.0398 29.43C91.9598 29.81 91.7298 30 91.3498 30H89.6248V7.905H92.3098V16.995ZM109.172 7.905V30H106.502V7.905H109.172ZM123.672 20.745C123.672 20.125 123.582 19.56 123.402 19.05C123.232 18.53 122.977 18.085 122.637 17.715C122.307 17.335 121.902 17.045 121.422 16.845C120.942 16.635 120.397 16.53 119.787 16.53C118.507 16.53 117.492 16.905 116.742 17.655C116.002 18.395 115.542 19.425 115.362 20.745H123.672ZM125.832 27.87C125.502 28.27 125.107 28.62 124.647 28.92C124.187 29.21 123.692 29.45 123.162 29.64C122.642 29.83 122.102 29.97 121.542 30.06C120.982 30.16 120.427 30.21 119.877 30.21C118.827 30.21 117.857 30.035 116.967 29.685C116.087 29.325 115.322 28.805 114.672 28.125C114.032 27.435 113.532 26.585 113.172 25.575C112.812 24.565 112.632 23.405 112.632 22.095C112.632 21.035 112.792 20.045 113.112 19.125C113.442 18.205 113.912 17.41 114.522 16.74C115.132 16.06 115.877 15.53 116.757 15.15C117.637 14.76 118.627 14.565 119.727 14.565C120.637 14.565 121.477 14.72 122.247 15.03C123.027 15.33 123.697 15.77 124.257 16.35C124.827 16.92 125.272 17.63 125.592 18.48C125.912 19.32 126.072 20.28 126.072 21.36C126.072 21.78 126.027 22.06 125.937 22.2C125.847 22.34 125.677 22.41 125.427 22.41H115.272C115.302 23.37 115.432 24.205 115.662 24.915C115.902 25.625 116.232 26.22 116.652 26.7C117.072 27.17 117.572 27.525 118.152 27.765C118.732 27.995 119.382 28.11 120.102 28.11C120.772 28.11 121.347 28.035 121.827 27.885C122.317 27.725 122.737 27.555 123.087 27.375C123.437 27.195 123.727 27.03 123.957 26.88C124.197 26.72 124.402 26.64 124.572 26.64C124.792 26.64 124.962 26.725 125.082 26.895L125.832 27.87Z" fill="#FB2417"/>
</svg>
